<?xml version="1.0" encoding="utf-8"?>
<!-- Generator: Adobe Illustrator 16.0.0, SVG Export Plug-In . SVG Version: 6.00 Build 0)  -->
<!DOCTYPE svg PUBLIC "-//W3C//DTD SVG 1.1//EN" "http://www.w3.org/Graphics/SVG/1.1/DTD/svg11.dtd">
<svg version="1.1" id="레이어_1" xmlns="http://www.w3.org/2000/svg" xmlns:xlink="http://www.w3.org/1999/xlink" x="0px"
	 y="0px" width="129.628px" height="39.709px" viewBox="0 0 129.628 39.709" enable-background="new 0 0 129.628 39.709"
	 xml:space="preserve">
<path fill="#FFFFFF" d="M23.098,15.056c0.005-0.142,0.007-0.282,0.007-0.42c0-1.762-1.503-3.195-3.353-3.203
	c-0.045,0-0.085,0.003-0.124,0.005c-1.806,0.058-3.251,1.47-3.251,3.198c0,1.716,1.42,3.121,3.203,3.2l0.479-0.012
	C21.629,17.693,22.896,16.536,23.098,15.056z"/>
<path fill="#FFFFFF" d="M39.433,17.864L33.965,6.138c-0.334-0.713-0.934-1.266-1.676-1.533L20.136,0.18
	c-0.741-0.271-1.558-0.233-2.271,0.098L6.139,5.745C5.427,6.08,4.874,6.681,4.604,7.421L0.18,19.577
	c-0.271,0.74-0.232,1.557,0.099,2.271l5.468,11.724c0.334,0.714,0.936,1.267,1.678,1.535L19.58,39.53
	c0.328,0.119,0.669,0.18,1.013,0.18c0.429,0,0.86-0.092,1.253-0.278l11.727-5.467c0.716-0.333,1.266-0.936,1.537-1.676l4.421-12.157
	C39.803,19.393,39.767,18.577,39.433,17.864z M31.276,21.132l-5.92-0.147c0.719,1.063,1.097,2.288,1.097,3.576
	c0,3.605-3.014,6.538-6.713,6.538c-0.004,0-0.005,0-0.008,0c-0.001,0-0.001,0-0.001,0c-0.978,0-1.902-0.21-2.739-0.579
	c-2.337-1.025-3.969-3.308-3.969-5.959c0-0.824,0.159-1.629,0.467-2.394h0.013c0.166-0.41,0.377-0.809,0.63-1.183l0.17-0.278
	l-5.882-0.146l0.007-0.644l22.863-0.003L31.276,21.132z M8.428,18.756l-0.007-0.64l6.168-0.155
	c-0.676-0.987-1.034-2.129-1.034-3.325c0-3.322,2.772-6.025,6.186-6.025c0.003,0,0.006,0,0.014,0c0.003,0,0.008,0,0.015,0
	c3.406,0,6.182,2.703,6.182,6.025c0,1.094-0.302,2.137-0.864,3.063l6.19-0.156l0.015,1.217L8.428,18.756z"/>
<path fill="#FFFFFF" d="M19.732,20.843l-0.063,0.002c-1.171,0.017-2.216,0.534-2.918,1.337h0.001
	c-0.058,0.063-0.108,0.13-0.157,0.195c-0.019,0.027-0.042,0.054-0.063,0.082c-0.037,0.051-0.067,0.104-0.104,0.158
	c-0.028,0.045-0.062,0.094-0.088,0.142c-0.025,0.042-0.049,0.087-0.07,0.128c-0.033,0.063-0.067,0.129-0.095,0.194
	c-0.017,0.032-0.03,0.066-0.046,0.1c-0.032,0.081-0.067,0.164-0.093,0.248c-0.009,0.022-0.014,0.043-0.022,0.063
	c-0.031,0.106-0.063,0.215-0.085,0.321c-0.001,0.004-0.002,0.007-0.002,0.007c-0.051,0.241-0.078,0.487-0.078,0.741
	c0,0.999,0.416,1.909,1.091,2.577c0.708,0.7,1.704,1.141,2.802,1.141c2.146,0,3.893-1.668,3.893-3.718
	c0-2.031-1.713-3.686-3.838-3.716L19.732,20.843z"/>
<g>
	<path fill="#FFFFFF" d="M109.166,6.291c-0.185,0-0.279-0.09-0.279-0.268s0.095-0.267,0.279-0.267h0.593V4.946
		c0-0.133-0.003-0.222-0.02-0.272c-0.015-0.054-0.069-0.094-0.165-0.125c-0.063-0.02-0.119-0.039-0.17-0.063
		c-0.051-0.026-0.076-0.071-0.076-0.134c0-0.13,0.097-0.196,0.29-0.196h0.491c0.244,0,0.37,0.114,0.37,0.343v1.259h0.916V3.873
		h-2.229c-0.185,0-0.279-0.091-0.279-0.274c0-0.177,0.095-0.267,0.279-0.267h3.5c0.186,0,0.279,0.09,0.279,0.267
		c0,0.184-0.094,0.274-0.271,0.274h-0.542v1.884h0.626c0.18,0,0.27,0.089,0.27,0.267s-0.092,0.268-0.278,0.268H109.166z
		 M114.309,9.858h-3.007c-0.304,0-0.456-0.163-0.456-0.489v-0.58c0-0.107-0.023-0.184-0.07-0.222
		c-0.043-0.039-0.102-0.076-0.169-0.104c-0.052-0.017-0.095-0.039-0.128-0.067c-0.037-0.031-0.059-0.076-0.059-0.142
		c0-0.123,0.073-0.188,0.225-0.188h2.951V7.354h-2.725c-0.184,0-0.274-0.091-0.274-0.275c0-0.172,0.091-0.259,0.274-0.259h3.166
		c0.202,0,0.304,0.109,0.304,0.335V8.2c0,0.264-0.114,0.396-0.345,0.396h-2.414v0.542c0,0.124,0.063,0.188,0.192,0.188h2.542
		c0.177,0,0.273,0.085,0.273,0.259C114.59,9.766,114.493,9.858,114.309,9.858z M113.666,3.458c0-0.144-0.024-0.239-0.072-0.283
		c-0.051-0.045-0.127-0.076-0.233-0.102c-0.121-0.026-0.212-0.056-0.281-0.083c-0.067-0.03-0.1-0.079-0.1-0.149
		c0-0.134,0.096-0.2,0.298-0.2h0.77c0.236,0,0.357,0.103,0.357,0.312v1.412h1.056c0.181,0,0.271,0.095,0.271,0.284
		c0,0.182-0.09,0.273-0.271,0.273h-1.056V5.8c0,0.462-0.191,0.691-0.569,0.691h-0.169V3.458z"/>
	<path fill="#FFFFFF" d="M119.746,3.739c0.246,0,0.366,0.129,0.366,0.38v2.144c0,0.281-0.04,0.497-0.127,0.646
		c0.166,0.012,0.244,0.1,0.244,0.267c0,0.185-0.091,0.276-0.278,0.276h-2.396c-0.09,0.14-0.224,0.208-0.397,0.208h-0.172V4.661
		c0-0.189-0.005-0.307-0.018-0.359c-0.017-0.051-0.07-0.096-0.167-0.132c-0.068-0.028-0.126-0.06-0.179-0.092
		c-0.05-0.031-0.078-0.076-0.078-0.139c0-0.133,0.098-0.2,0.28-0.2H119.746z M117.709,6.909h1.676V4.282h-1.665v2.417
		C117.72,6.775,117.711,6.844,117.709,6.909z M121.479,3.458c0-0.144-0.025-0.239-0.07-0.283c-0.044-0.045-0.124-0.076-0.235-0.102
		c-0.114-0.026-0.207-0.056-0.277-0.083c-0.07-0.03-0.104-0.079-0.104-0.149c0-0.134,0.094-0.2,0.295-0.2h0.761
		c0.244,0,0.365,0.103,0.365,0.312v6.211c0,0.466-0.187,0.695-0.557,0.695h-0.178V3.458z"/>
	<path fill="#FFFFFF" d="M123.358,5.16c0-0.436,0.16-0.808,0.476-1.119c0.316-0.311,0.712-0.465,1.194-0.465
		c0.479,0,0.882,0.154,1.2,0.462c0.227,0.217,0.373,0.468,0.435,0.751h0.693v-0.76c0-0.139-0.019-0.228-0.058-0.271
		c-0.041-0.04-0.116-0.076-0.231-0.106c-0.122-0.03-0.216-0.06-0.277-0.093c-0.062-0.031-0.095-0.081-0.095-0.147
		c0-0.123,0.102-0.183,0.297-0.183h0.729c0.242,0,0.365,0.109,0.365,0.334v3.813c0,0.467-0.188,0.7-0.567,0.7h-0.162V5.331h-0.661
		c-0.038,0.362-0.191,0.678-0.467,0.945c-0.318,0.312-0.722,0.468-1.2,0.468c-0.482,0-0.878-0.156-1.194-0.465
		C123.519,5.968,123.358,5.594,123.358,5.16z M124.088,5.16c0,0.306,0.095,0.557,0.281,0.747c0.191,0.192,0.412,0.285,0.659,0.285
		c0.249,0,0.467-0.093,0.661-0.285c0.193-0.19,0.286-0.441,0.286-0.747c0-0.311-0.093-0.563-0.286-0.754
		c-0.194-0.192-0.412-0.287-0.661-0.287c-0.247,0-0.468,0.095-0.659,0.287C124.183,4.597,124.088,4.849,124.088,5.16z M129.34,9.858
		h-3.142c-0.539,0-0.807-0.22-0.807-0.66V8.382c0-0.14-0.025-0.232-0.071-0.277c-0.047-0.045-0.13-0.078-0.242-0.103
		c-0.117-0.037-0.197-0.066-0.242-0.095c-0.04-0.024-0.063-0.076-0.063-0.144c0-0.135,0.088-0.203,0.265-0.203h0.734
		c0.24,0,0.355,0.119,0.355,0.352v1.24c0,0.104,0.056,0.158,0.164,0.158h3.053c0.189,0,0.284,0.091,0.284,0.274
		C129.628,9.766,129.531,9.858,129.34,9.858z M128.33,2.64h0.736c0.255,0,0.384,0.106,0.384,0.319v4.58
		c0,0.467-0.194,0.699-0.576,0.699h-0.167V3.451c0-0.145-0.022-0.238-0.061-0.285c-0.035-0.043-0.115-0.076-0.24-0.105
		c-0.125-0.021-0.217-0.046-0.282-0.075c-0.064-0.026-0.1-0.074-0.1-0.145C128.024,2.707,128.126,2.64,128.33,2.64z"/>
</g>
<polygon fill="#FFFFFF" points="75.029,12.925 72.377,12.925 72.377,27.349 81.909,27.349 81.909,25.379 75.029,25.379 "/>
<rect x="100.665" y="12.925" fill="#FFFFFF" width="2.649" height="14.424"/>
<path fill="#FFFFFF" d="M97.707,12.925h-3.048c0,0-3.201,9.841-3.655,11.323c-0.462-1.526-3.692-11.323-3.692-11.323h-3.048v14.424
	h2.648v-8.593c0.256,0.718,2.896,8.511,2.896,8.511h2.338c0,0,2.587-7.662,2.941-8.589v8.671h2.65V12.925H97.707z"/>
<path fill="#FFFFFF" d="M129.625,12.925h-2.65v9.648c-1.672-2.839-5.178-9.648-5.178-9.648h-2.725v14.424h2.648v-9.975
	c1.123,1.962,5.254,9.975,5.254,9.975h2.65h0.003V12.925H129.625z"/>
<path fill="#FFFFFF" d="M56.314,14.041c-1.048-0.81-2.639-1.22-4.734-1.22c-1.441,0-3.43,0.093-4.685,0.271l-0.226,0.032v14.225
	h2.631V14.807c0.396-0.063,1.634-0.101,2.327-0.101c1.332,0,3.569,0.328,3.569,2.529c0,1.681-1.305,2.667-3.584,2.729v1.908
	c2.051-0.047,3.775-0.61,4.879-1.598c0.884-0.779,1.328-1.838,1.328-3.145C57.82,15.883,57.287,14.784,56.314,14.041z"/>
<path fill="#FFFFFF" d="M60.25,17.085c-0.581,4.185-2.063,6.932-4.063,9.532l1.899,1.461c2.017-2.619,3.91-5.785,4.573-10.993H60.25
	z"/>
<path fill="#FFFFFF" d="M71.139,26.618c-2.596-3.376-4.326-6.997-4.326-13.692h-6.359v1.97h4.015
	c0.358,6.545,2.487,10.214,4.771,13.184L71.139,26.618z"/>
<g>
	<path fill="#FFFFFF" d="M114.683,27.349h2.557l-4.922-14.425h-2.471l-4.92,14.425h2.494c0.324-1.018,3.337-10.577,3.481-11.131
		l0.121-0.46l0.117,0.46C111.285,16.758,114.356,26.335,114.683,27.349z"/>
</g>
</svg>
